#N canvas 1201 443 596 601 10;
#X floatatom 286 95 5 0 0 0 - - -, f 5;
#X obj 68 186 osc~;
#X obj 64 225 dac~;
#X obj 411 478 lop~ 5000;
#X obj 362 529 clip~ -0.5 0.5;
#X obj 456 428 bp~ 1000 100;
#X obj 169 203 mtof;
#X obj 373 439 spigot;
#X msg 125 146 bang;
#X msg 125 168 0;
#X obj 155 115 moses 10;
#X msg 111 18 59;
#X obj 111 40 mtof;
#X obj 111 62 phasor~;
#X obj 258 13 adc~ 2;
#X floatatom 505 87 5 0 0 0 - - -, f 5;
#X obj 335 362 noteout;
#X msg 376 330 1;
#X msg 376 290 0;
#X obj 298 282 f;
#X obj 355 206 f;
#X obj 262 128 t b f b b;
#X obj 446 192 spigot 0;
#X msg 491 172 1;
#X obj 446 214 < 30;
#X obj 354 228 / 80;
#X obj 354 250 * 128;
#X obj 440 258 t b b b b;
#X msg 466 303 0;
#X obj 430 317 notein;
#X floatatom 461 383 5 0 0 0 - - -, f 5;
#X obj 446 236 sel 1;
#X msg 39 270 bang;
#X obj 48 330 until;
#X obj 48 352 f;
#X obj 82 353 + 1;
#X obj 82 375 mod 128;
#X obj 82 397 sel 0;
#X obj 47 440 t f b b;
#X msg 90 462 1;
#X msg 78 493 0;
#X obj 253 61 sigmund~ notes env -npts 4096 -minpower 30;
#X obj 234 304 t b b;
#X obj 258 409 bag;
#X connect 6 0 1 0;
#X connect 8 0 9 0;
#X connect 9 0 1 0;
#X connect 10 0 8 0;
#X connect 10 1 6 0;
#X connect 11 0 12 0;
#X connect 12 0 13 0;
#X connect 14 0 41 0;
#X connect 17 0 16 2;
#X connect 18 0 16 1;
#X connect 19 0 16 0;
#X connect 20 0 25 0;
#X connect 21 0 23 0;
#X connect 21 1 19 0;
#X connect 21 2 20 0;
#X connect 21 3 17 0;
#X connect 22 0 24 0;
#X connect 23 0 22 1;
#X connect 24 0 31 0;
#X connect 25 0 26 0;
#X connect 26 0 16 1;
#X connect 27 0 19 0;
#X connect 27 1 18 0;
#X connect 27 2 17 0;
#X connect 27 3 28 0;
#X connect 28 0 22 1;
#X connect 29 0 16 0;
#X connect 29 0 30 0;
#X connect 29 1 16 1;
#X connect 29 2 16 2;
#X connect 31 0 27 0;
#X connect 32 0 33 0;
#X connect 33 0 34 0;
#X connect 34 0 38 0;
#X connect 34 0 35 0;
#X connect 35 0 36 0;
#X connect 36 0 37 0;
#X connect 36 0 34 1;
#X connect 37 0 33 1;
#X connect 38 0 16 0;
#X connect 38 1 40 0;
#X connect 38 2 39 0;
#X connect 39 0 16 2;
#X connect 40 0 16 1;
#X connect 41 0 0 0;
#X connect 41 0 21 0;
#X connect 41 1 15 0;
#X connect 41 1 20 1;
#X connect 41 1 22 0;
#X connect 42 0 33 0;
#X connect 42 1 28 0;
