#N canvas 25 628 450 300 10;
#X obj 199 32 adc~ 1;
#X floatatom 227 114 5 0 0 0 - - -, f 5;
#X obj 68 186 osc~;
#X obj 194 81 sigmund~ -minpower 40;
#X obj 64 225 dac~;
#X obj 249 170 lop~ 5000;
#X obj 193 209 clip~ -0.5 0.5;
#X obj 19 112 bp~ 1000 100;
#X obj 169 203 mtof;
#X obj 358 140 spigot;
#X msg 125 146 bang;
#X msg 125 168 0;
#X obj 155 115 moses 10;
#X connect 0 0 3 0;
#X connect 3 0 1 0;
#X connect 3 0 12 0;
#X connect 8 0 2 0;
#X connect 10 0 11 0;
#X connect 11 0 2 0;
#X connect 12 0 10 0;
#X connect 12 1 8 0;
