#N canvas 49 762 937 731 10;
#N canvas 307 831 821 693 fft-analysis 0;
#X obj 51 477 *~;
#X obj 18 477 *~;
#X obj 18 499 -~;
#X obj 167 475 *~;
#X obj 136 475 *~;
#X obj 136 497 +~;
#X obj 109 193 *~;
#X obj 78 193 *~;
#X obj 50 193 *~;
#X obj 19 193 *~;
#X obj 19 218 +~;
#X obj 127 379 *~;
#X obj 20 622 *~;
#X obj 238 430 rfft~;
#X obj 108 161 rfft~;
#X obj 19 564 rifft~;
#X obj 21 646 outlet~;
#X obj 97 379 *~;
#X obj 97 401 +~;
#X obj 124 218 -~;
#X obj 18 431 *~;
#X obj 51 432 *~;
#X obj 426 644 block~;
#X obj 19 349 +~ 1e-15;
#X obj 19 598 *~;
#X obj 52 598 tabreceive~ \$0-hann;
#X obj 127 643 expr 2/(3*$f1);
#X obj 591 532 loadbang;
#X msg 426 619 set \$1 4;
#X obj 97 425 q8_rsqrt~;
#X text 272 5 recall previous output amplitude. Its phase will be added
to the phase difference we measure from two windows in the the recorded
sound.;
#X obj 121 69 *~;
#X obj 89 69 *~;
#X obj 89 91 +~;
#X obj 159 94 q8_rsqrt~;
#X obj 159 71 +~ 1e-20;
#X obj 73 119 *~;
#X obj 19 118 *~;
#X obj 29 245 lrshift~ 1;
#X obj 24 269 lrshift~ -1;
#X obj 141 245 lrshift~ 1;
#X obj 133 269 lrshift~ -1;
#X obj 35 300 *~;
#X obj 159 312 *~;
#X obj 19 325 +~;
#X obj 125 331 +~;
#X text 247 66 divide by the magnitude to make a unit-magnitude complex
amplitude (phase only). The 1e-20 is to prevent overflows. q8_rsqrt~
is reciprocal square root.;
#X text 247 165 Take FT of the window in back. Multiply its conjugate
by the normalized previous output. The result has the magnitude of
the input sound and phase (previous output phase) minus (back window
phase).;
#X text 249 370 Normalize again \, this time taking care to salt each
channel with 1e-15 so that we get a unit complex number even if everything
was zero heretofore.;
#X text 288 427 Now take the FT of the forward window and multiply
it by the unit complex number from above. The magnitude will be that
of the forward window and the phase will be the previous output phase
plus the phase difference between the two analysis windows -- except
that if "lock" is on \, they will be modified to agree progressively
better with the inter-channel phase relationships of the input.;
#X text 249 242 If "lock" is on \, encourage neighboring channels to
stay in phase by adding the two neighboring complex amplitudes. The
result will tend toward the channel with the strongest amplitude. If
the phase relationships between channels in the output and those in
the input are in parallel \, then neighboring channels of the quotient
will all have the same phase and this will not change any phases. (lrshift
shifts the signal to the left or right depending on its argument.)
;
#X text 387 560 'set' message to block;
#X text 390 577 allows variable size;
#X text 259 126 Read two windows \, one 1/4 length behind the other
\, of the input sound \, with Hann window function (see inside).;
#X obj 20 8 tabreceive~ \$0-prev-real;
#X obj 73 29 tabreceive~ \$0-prev-imag;
#N canvas 193 954 1006 799 read-windows 0;
#X obj 18 693 *~;
#X obj 166 303 f;
#X obj 102 139 /;
#X obj 195 695 *~;
#X obj 166 252 bang~;
#X obj 17 551 line~;
#X obj 102 164 * 1000;
#X obj 208 305 +;
#X obj 288 275 *;
#X obj 188 371 / 1000;
#X obj 166 394 *;
#X text 198 394 reading location (samples);
#X obj 51 597 / 4;
#X obj 288 245 * 0.01;
#X floatatom 340 498 7 0 0 0 - - -, f 7;
#X obj 340 474 *;
#X obj 499 387 * 0.01;
#X obj 501 408 + 69;
#X obj 502 429 mtof;
#X obj 502 451 / 440;
#X obj 375 474 t b f;
#X obj 19 719 outlet~;
#X obj 195 720 outlet~;
#X obj 218 664 tabreceive~ \$0-hann;
#X msg 803 409 0;
#X msg 727 530 set \$1;
#X text 411 498 stretched window size (samples);
#X msg 877 533 set \$1;
#X msg 826 278 set \$1;
#X obj 808 140 t b f;
#X obj 826 257 f;
#X obj 754 171 int;
#X obj 754 203 sel 0;
#X msg 813 174 1;
#X msg 813 197 0;
#X obj 754 228 del 300;
#X obj 188 347 r \$0-insamprate;
#X floatatom 111 187 5 0 0 0 - - -, f 5;
#X obj 102 115 t f b;
#X obj 142 139 samplerate~;
#X obj 102 208 / 4;
#X obj 203 420 / 2;
#X obj 166 420 -;
#X text 239 417 back up 1/2 window;
#X obj 16 597 -~;
#X text 43 6 Read two windows out of the recorded sample \, one 1/4
ahead of the other. The mid point of the front window is specified
by "location". If "speed" is nonzero \, "location" automatically precesses.
;
#X obj 528 714 * -0.5;
#X text 81 601 "back" window 1/4 cycle behind "front" one;
#X text 137 205 computation period (msec) for overlap of 4;
#X text 164 186 msec in a window;
#X obj 528 666 /;
#X obj 528 691 * 1000;
#X obj 528 642 t f b;
#X obj 568 666 samplerate~;
#X obj 528 619 f;
#X text 326 275 loop to precess the location according;
#X text 325 291 to the "speed" parameter.;
#X text 611 31 if location changes \, update number box;
#X text 610 50 in main window via "location-set" \, but;
#X text 613 69 taking care to limit frequency of updates.;
#X text 756 462 reflect control changes;
#X text 756 479 in main window.;
#X text 754 344 setting location by hand;
#X text 752 362 sets speed to zero.;
#X text 760 653 misc controls;
#X text 496 527 "rewind" control takes us;
#X text 499 545 to a location depending on;
#X text 499 564 stretched window size.;
#X obj 16 469 f;
#X obj 17 496 pack;
#X obj 15 440 b;
#X msg 17 523 0 \, \$1 \$2;
#X obj 102 91 r \$0-window-size;
#X obj 808 94 r \$0-location;
#X obj 817 116 r \$0-see-loc;
#X obj 826 302 s \$0-location-set;
#X obj 803 386 r \$0-location;
#X obj 877 507 r \$0-transpo;
#X obj 877 558 s \$0-transpo-set;
#X obj 727 555 s \$0-speed-set;
#X obj 528 586 r \$0-rewind;
#X obj 339 448 r \$0-window-size;
#X obj 499 365 r \$0-transpo;
#X obj 187 276 r \$0-location;
#X obj 243 309 s \$0-see-loc;
#X obj 730 685 r \$0-no-detune;
#X obj 844 684 r \$0-auto;
#X obj 730 707 f \$0;
#X msg 730 729 \; \$1-transpo 0;
#X obj 844 708 pack f \$0;
#X obj 528 737 pack f \$0;
#X msg 528 761 \; \$2-location \$1;
#X obj 195 224 r \$0-loop-loc;
#X obj 288 222 r \$0-speed;
#X obj 803 432 s \$0-speed;
#X obj 728 506 r \$0-speed;
#X msg 844 737 \; \$2-rewind bang \; \$2-speed \$1;
#X obj 17 637 tabread4~;
#X obj 194 637 tabread4~;
#X obj 138 517 r \$0-samptab;
#X msg 138 538 set \$1;
#X connect 0 0 21 0;
#X connect 1 0 7 0;
#X connect 1 0 10 0;
#X connect 2 0 6 0;
#X connect 3 0 22 0;
#X connect 4 0 1 0;
#X connect 5 0 44 0;
#X connect 5 0 98 0;
#X connect 6 0 37 0;
#X connect 6 0 40 0;
#X connect 7 0 1 1;
#X connect 7 0 84 0;
#X connect 8 0 7 1;
#X connect 9 0 10 1;
#X connect 10 0 42 0;
#X connect 12 0 44 1;
#X connect 13 0 8 0;
#X connect 14 0 12 0;
#X connect 14 0 41 0;
#X connect 14 0 54 1;
#X connect 14 0 68 1;
#X connect 15 0 14 0;
#X connect 16 0 17 0;
#X connect 17 0 18 0;
#X connect 18 0 19 0;
#X connect 19 0 20 0;
#X connect 20 0 15 0;
#X connect 20 1 15 1;
#X connect 23 0 3 1;
#X connect 23 0 0 1;
#X connect 24 0 94 0;
#X connect 25 0 79 0;
#X connect 27 0 78 0;
#X connect 28 0 75 0;
#X connect 29 0 31 0;
#X connect 29 1 30 1;
#X connect 30 0 28 0;
#X connect 31 0 32 0;
#X connect 32 0 33 0;
#X connect 32 0 35 0;
#X connect 33 0 31 1;
#X connect 34 0 31 1;
#X connect 35 0 34 0;
#X connect 35 0 30 0;
#X connect 36 0 9 0;
#X connect 38 0 2 0;
#X connect 38 1 39 0;
#X connect 39 0 2 1;
#X connect 39 0 9 0;
#X connect 40 0 8 1;
#X connect 40 0 69 1;
#X connect 41 0 42 1;
#X connect 42 0 70 0;
#X connect 42 0 97 1;
#X connect 42 0 98 1;
#X connect 44 0 97 0;
#X connect 46 0 90 0;
#X connect 50 0 51 0;
#X connect 51 0 46 0;
#X connect 52 0 50 0;
#X connect 52 1 53 0;
#X connect 53 0 50 1;
#X connect 54 0 52 0;
#X connect 68 0 69 0;
#X connect 69 0 71 0;
#X connect 70 0 68 0;
#X connect 71 0 5 0;
#X connect 72 0 38 0;
#X connect 73 0 29 0;
#X connect 74 0 29 0;
#X connect 76 0 24 0;
#X connect 77 0 27 0;
#X connect 80 0 54 0;
#X connect 81 0 15 0;
#X connect 82 0 16 0;
#X connect 83 0 1 1;
#X connect 85 0 87 0;
#X connect 86 0 89 0;
#X connect 87 0 88 0;
#X connect 89 0 96 0;
#X connect 90 0 91 0;
#X connect 92 0 1 1;
#X connect 93 0 13 0;
#X connect 95 0 25 0;
#X connect 97 0 0 0;
#X connect 98 0 3 0;
#X connect 99 0 100 0;
#X connect 100 0 97 0;
#X connect 100 0 98 0;
#X restore 109 133 pd read-windows;
#X obj 181 290 r \$0-lock;
#X obj 137 543 tabsend~ \$0-prev-imag;
#X obj 136 567 tabsend~ \$0-prev-real;
#X obj 426 595 r \$0-window-size;
#X obj 591 560 f \$0;
#X obj 127 622 r \$0-window-size;
#X msg 591 589 \; pd dsp 1 \; \$1-window-size 256 \; \$1-transpo 0
\; \$1-lock 1 \; \$1-rewind bang;
#X connect 0 0 2 1;
#X connect 1 0 2 0;
#X connect 2 0 15 0;
#X connect 2 0 59 0;
#X connect 3 0 5 1;
#X connect 4 0 5 0;
#X connect 5 0 15 1;
#X connect 5 0 58 0;
#X connect 6 0 19 1;
#X connect 7 0 19 0;
#X connect 8 0 10 1;
#X connect 9 0 10 0;
#X connect 10 0 39 0;
#X connect 10 0 38 0;
#X connect 10 0 44 0;
#X connect 11 0 18 1;
#X connect 12 0 16 0;
#X connect 13 0 1 1;
#X connect 13 0 3 1;
#X connect 13 1 0 1;
#X connect 13 1 4 1;
#X connect 14 0 9 1;
#X connect 14 0 7 1;
#X connect 14 1 6 1;
#X connect 14 1 8 1;
#X connect 15 0 24 0;
#X connect 17 0 18 0;
#X connect 18 0 29 0;
#X connect 19 0 40 0;
#X connect 19 0 41 0;
#X connect 19 0 45 0;
#X connect 20 0 1 0;
#X connect 20 0 4 0;
#X connect 21 0 0 0;
#X connect 21 0 3 0;
#X connect 23 0 17 1;
#X connect 23 0 17 0;
#X connect 23 0 20 0;
#X connect 24 0 12 0;
#X connect 25 0 24 1;
#X connect 26 0 12 1;
#X connect 27 0 61 0;
#X connect 28 0 22 0;
#X connect 29 0 20 1;
#X connect 29 0 21 1;
#X connect 31 0 33 1;
#X connect 32 0 33 0;
#X connect 33 0 35 0;
#X connect 34 0 36 1;
#X connect 34 0 37 1;
#X connect 35 0 34 0;
#X connect 36 0 8 0;
#X connect 36 0 7 0;
#X connect 37 0 9 0;
#X connect 37 0 6 0;
#X connect 38 0 42 0;
#X connect 39 0 42 0;
#X connect 40 0 43 0;
#X connect 41 0 43 0;
#X connect 42 0 44 1;
#X connect 43 0 45 1;
#X connect 44 0 23 0;
#X connect 45 0 11 0;
#X connect 45 0 11 1;
#X connect 45 0 21 0;
#X connect 54 0 32 1;
#X connect 54 0 32 0;
#X connect 54 0 37 0;
#X connect 55 0 31 1;
#X connect 55 0 31 0;
#X connect 55 0 36 0;
#X connect 56 0 14 0;
#X connect 56 1 13 0;
#X connect 57 0 42 1;
#X connect 57 0 43 1;
#X connect 60 0 28 0;
#X connect 61 0 63 0;
#X connect 62 0 26 0;
#X restore 30 220 pd fft-analysis;
#N canvas 239 105 647 768 phase-tables 0;
#N canvas 0 50 450 300 (subpatch) 0;
#X array \$0-prev-imag 4096 float 0;
#X coords 0 1000 4096 -1000 400 300 1;
#X restore 169 326 graph;
#N canvas 0 50 450 300 (subpatch) 0;
#X array \$0-prev-real 4096 float 0;
#X coords 0 500 4096 -500 400 300 1;
#X restore 170 17 graph;
#X restore 151 244 pd phase-tables;
#N canvas 306 747 565 454 hann-window 0;
#N canvas 0 50 450 300 (subpatch) 0;
#X array \$0-hann 256 float 0;
#X coords 0 1 255 0 300 100 1;
#X restore 82 311 graph;
#X obj 378 165 osc~;
#X obj 378 190 *~ -0.5;
#X obj 378 214 +~ 0.5;
#X obj 331 247 tabwrite~ \$0-hann;
#X obj 38 173 /;
#X obj 127 142 samplerate~;
#X obj 177 204 swap;
#X obj 177 228 /;
#X obj 49 201 * 1000;
#X obj 38 115 t f b f;
#X msg 173 92 resize \$1;
#X obj 173 116 s \$0-hann;
#X msg 382 130 0;
#X obj 330 131 t f b;
#X text 15 8 calculate Hann window table (variable window size) and
constants window-hz (fundamental frequency of analysis) \, window-sec
and window-msec (analysis window size in seconds and msec).;
#X obj 37 88 r \$0-window-size;
#X obj 49 228 s \$0-window-msec;
#X obj 38 251 s \$0-window-sec;
#X obj 177 252 s \$0-window-hz;
#X obj 330 105 r \$0-window-hz;
#X connect 1 0 2 0;
#X connect 2 0 3 0;
#X connect 3 0 4 0;
#X connect 5 0 9 0;
#X connect 5 0 18 0;
#X connect 6 0 5 1;
#X connect 6 0 7 1;
#X connect 7 0 8 0;
#X connect 7 1 8 1;
#X connect 8 0 19 0;
#X connect 9 0 17 0;
#X connect 10 0 5 0;
#X connect 10 0 7 0;
#X connect 10 1 6 0;
#X connect 10 2 11 0;
#X connect 11 0 12 0;
#X connect 13 0 1 1;
#X connect 14 0 1 0;
#X connect 14 1 4 0;
#X connect 14 1 13 0;
#X connect 16 0 10 0;
#X connect 20 0 14 0;
#X restore 151 268 pd hann-window;
#X floatatom 460 123 5 0 0 0 - #0-transpo-set -, f 5;
#X floatatom 143 123 3 0 0 0 - #0-speed-set -, f 3;
#X floatatom 31 125 7 0 0 0 - #0-location-set -, f 7;
#X text 140 104 hundredths;
#X text 499 121 in cents;
#X text 365 99 normal;
#X obj 670 358 tgl 15 0 empty empty empty 0 -6 0 8 -262144 -1 -1 1
1;
#X obj 229 93 bng 15 250 50 0 empty empty empty 0 -6 0 8 -262144 -1
-1;
#X msg 321 76 200;
#X msg 321 98 100;
#X msg 321 120 20;
#X text 362 75 contract;
#X text 366 120 expand;
#X text 500 104 detune;
#X text 31 70 location;
#X text 28 86 (stops;
#X text 33 101 motion);
#X text 141 88 motion in;
#X floatatom 752 420 5 0 0 0 - #0-window-size -, f 5;
#X msg 752 308 512;
#X msg 752 330 1024;
#X msg 752 352 2048;
#X msg 752 374 4096;
#X text 752 275 window size \,;
#X text 752 290 samples;
#X text 793 307 <- set;
#X text 76 46 ------- location controls -------;
#X text 805 420 (check);
#X obj 504 140 bng 15 250 50 0 no-detune empty empty 0 -6 0 8 -262144
-1 -1;
#X obj 31 144 s \$0-location;
#X obj 229 115 s \$0-rewind;
#X obj 321 147 s \$0-auto;
#X obj 670 378 s \$0-lock;
#X obj 447 162 s \$0-transpo;
#X obj 752 396 s \$0-window-size;
#X obj 30 245 outlet~;
#X obj 437 78 + 0;
#X text 471 77 <-- transposition \, halftones;
#X obj 502 52 t b f;
#X obj 402 53 t b f;
#X obj 437 102 * 100;
#X msg 852 344 256;
#X obj 483 587 f;
#X obj 483 435 r \$0-see-loc;
#X obj 483 543 sel 1;
#X obj 484 617 s \$0-loop-loc;
#X obj 483 521 >;
#X obj 483 479 spigot;
#X obj 326 500 r \$0-see-loc;
#X text 488 414 Loop Sample;
#X obj 344 522 r \$0-samplength;
#X obj 344 544 * 1.5;
#X obj 326 566 >;
#X obj 326 588 sel 1;
#X obj 325 619 s \$0-rewind;
#X obj 143 143 s \$0-speed;
#X text 298 471 Stop location after 1.5;
#X obj 402 30 inlet pitch;
#X obj 502 30 inlet bend;
#X obj 692 11 inlet samptab;
#X obj 692 133 s \$0-samptab;
#X obj 692 33 unpack s f f f f;
#X obj 522 456 r \$0-sampLoopR;
#X obj 501 565 r \$0-sampStR;
#X obj 501 499 r \$0-sampEndR;
#X obj 719 114 s \$0-samplength;
#X obj 746 95 s \$0-sampLoopR;
#X obj 773 75 s \$0-sampStR;
#X obj 801 55 s \$0-sampEndR;
#X connect 0 0 38 0;
#X connect 3 0 36 0;
#X connect 4 0 58 0;
#X connect 5 0 32 0;
#X connect 9 0 35 0;
#X connect 10 0 33 0;
#X connect 11 0 34 0;
#X connect 12 0 34 0;
#X connect 13 0 34 0;
#X connect 22 0 37 0;
#X connect 23 0 37 0;
#X connect 24 0 37 0;
#X connect 25 0 37 0;
#X connect 39 0 43 0;
#X connect 41 0 39 0;
#X connect 41 1 39 1;
#X connect 42 0 12 0;
#X connect 42 1 39 0;
#X connect 43 0 36 0;
#X connect 44 0 37 0;
#X connect 45 0 48 0;
#X connect 46 0 50 0;
#X connect 47 0 45 0;
#X connect 49 0 47 0;
#X connect 50 0 49 0;
#X connect 51 0 55 0;
#X connect 53 0 54 0;
#X connect 54 0 55 1;
#X connect 55 0 56 0;
#X connect 56 0 57 0;
#X connect 60 0 42 0;
#X connect 61 0 41 0;
#X connect 62 0 64 0;
#X connect 64 0 63 0;
#X connect 64 1 68 0;
#X connect 64 2 69 0;
#X connect 64 3 70 0;
#X connect 64 4 71 0;
#X connect 65 0 50 1;
#X connect 66 0 45 1;
#X connect 67 0 49 1;
