#N canvas 740 50 1029 604 10;
#X obj 789 68 bng 15 250 50 0 empty empty empty 17 7 0 10 -112434 -1
-1;
#N canvas 0 50 450 250 (subpatch) 0;
#X array \$0-sample 8073 float 0;
#X coords 0 1 8072 -1 200 140 1 0 0;
#X restore 12 200 graph;
#X obj 808 201 inlet patchfile;
#X obj 804 281 outlet patchend;
#X obj 804 261 r \$0-textmetro;
#N canvas 58 324 966 685 patchload 0;
#X obj 140 14 inlet;
#X obj 367 481 pack s f \$0;
#X msg 367 502 \; \$3-\$1 \$2 \;;
#X obj 122 366 textfile;
#X msg 122 317 rewind;
#X msg 257 317 clear;
#X obj 258 478 pack s \$0;
#X obj 258 457 route samplepath;
#X obj 80 342 metro;
#X msg 175 317 read \$1 cr;
#X msg 40 316 stop;
#X obj 140 35 pack s;
#X obj 140 56 t b b s b b;
#X obj 672 233 f \$0;
#X msg 315 49 bang;
#X obj 40 294 r \$0-loadmetro;
#X obj 175 387 s \$0-loadmetro;
#X obj 340 78 loadbang;
#X msg 672 254 \; \$1-playbacktype 0 \; \$1-midich 0 \; \$1-nominalnote
0 \; \$1-attack 0 \; \$1-decay 0 \; \$1-sustain 100 \; \$1-release
0 \; \$1-samplespeedratio 1 \; \$1-samplespeed 100 \; \$1-chunksize
25 \; \$1-lowpass 0 \; \$1-highpass 0 \; \$1-vcf 0 \; \$1-vcfq 0 \;
\$1-reverblength 0 \; \$1-reverblevel 0 \; \$1-sampleloop 0 \; \$1-sampleloopstart
0 \; \$1-sampleloopend 0 \; \$1-sample const 0 \; \$1-samplepath symbol
\; \$1-pantype 1 \; \$1-balance 0.5 \; \$1-volume 1 \;;
#X msg 258 538 \; \$2-samplepath symbol \$1 \;;
#X obj 268 137 t b b b b;
#X msg 262 257 symbol /home/pae/puredata/parameters/defaults.txt;
#X obj 122 410 route sample;
#X obj 122 435 pack s f \$0;
#X msg 122 457 \; \$3-sample \$1 \$2 \; \$3-sampleR \$1 \$2;
#X connect 0 0 11 0;
#X connect 1 0 2 0;
#X connect 3 0 22 0;
#X connect 3 1 16 0;
#X connect 4 0 3 0;
#X connect 5 0 3 0;
#X connect 6 0 19 0;
#X connect 7 0 6 0;
#X connect 7 1 1 0;
#X connect 8 0 3 0;
#X connect 9 0 3 0;
#X connect 10 0 8 0;
#X connect 11 0 12 0;
#X connect 12 0 8 0;
#X connect 12 1 4 0;
#X connect 12 2 9 0;
#X connect 12 3 5 0;
#X connect 12 4 20 0;
#X connect 13 0 18 0;
#X connect 14 0 20 0;
#X connect 15 0 10 0;
#X connect 17 0 20 0;
#X connect 20 0 8 0;
#X connect 20 1 4 0;
#X connect 20 2 21 0;
#X connect 20 3 5 0;
#X connect 21 0 9 0;
#X connect 22 0 23 0;
#X connect 22 1 7 0;
#X connect 23 0 24 0;
#X restore 808 224 pd patchload;
#N canvas 249 288 116 119 midinote 0;
#X obj 11 104 route;
#X floatatom 43 84 5 0 0 0 - #0-midichRcv -, f 5;
#X obj 11 125 outlet;
#X obj 11 38 swap;
#X obj 11 16 notein;
#X obj 11 63 pack f f f;
#X connect 0 0 2 0;
#X connect 1 0 0 1;
#X connect 3 0 5 0;
#X connect 3 1 5 2;
#X connect 4 0 3 0;
#X connect 4 1 5 1;
#X connect 4 2 3 1;
#X connect 5 0 0 0;
#X restore 468 212 pd midinote;
#X obj 789 158 bng 15 250 50 0 empty empty empty 17 7 0 10 -112434
-1 -1;
#X obj 789 178 openpanel;
#X obj 789 113 bng 15 250 50 0 empty empty empty 17 7 0 10 -112434
-1 -1;
#X floatatom 332 46 5 0 0 0 NominalNote #0-nominalnote #0-nominalnoteRcv
, f 5;
#X floatatom 222 85 5 0 0 0 Attack #0-attack #0-attackRcv, f 5;
#X floatatom 222 104 5 0 0 0 Decay #0-decay #0-decayRcv, f 5;
#X floatatom 222 123 5 0 0 0 Sustain #0-sustain #0-sustainRcv, f 5
;
#X floatatom 222 142 5 0 0 0 Release #0-release #0-releaseRcv, f 5
;
#X obj 484 346 dac~;
#N canvas 511 250 341 541 pitchBend 0;
#X obj 29 10 bendin;
#X floatatom 29 120 5 0 0 0 - - -, f 5;
#X obj 29 144 / 128;
#X obj 29 173 moses 63;
#X floatatom 29 201 5 0 0 0 - - -, f 5;
#X floatatom 84 226 5 0 0 0 - - -, f 5;
#X floatatom 137 226 5 0 0 0 - - -, f 5;
#X obj 84 202 moses 65;
#X obj 29 223 - 64;
#X obj 29 247 / 64;
#X msg 84 248 0;
#X obj 137 248 - 63.9;
#X obj 137 273 div 1;
#X obj 137 298 / 64;
#X obj 221 171 inlet scale;
#X obj 188 443 t b f;
#X obj 153 484 *;
#X msg 238 258 2;
#X msg 255 287 3;
#X msg 272 315 4;
#X msg 289 344 6;
#X msg 306 371 12;
#X obj 185 127 loadbang;
#X obj 153 511 outlet;
#X obj 29 95 route;
#X floatatom 61 75 5 0 0 0 - #0-midichRcv -, f 5;
#X obj 29 55 pack f f;
#X obj 29 33 swap;
#X msg 221 228 0;
#X obj 221 197 sel 0 1 2 3 4 5;
#X connect 0 0 27 0;
#X connect 0 1 27 1;
#X connect 1 0 2 0;
#X connect 2 0 3 0;
#X connect 3 0 4 0;
#X connect 3 1 7 0;
#X connect 4 0 8 0;
#X connect 5 0 10 0;
#X connect 6 0 11 0;
#X connect 7 0 5 0;
#X connect 7 1 6 0;
#X connect 8 0 9 0;
#X connect 9 0 16 0;
#X connect 10 0 16 0;
#X connect 11 0 12 0;
#X connect 12 0 13 0;
#X connect 13 0 16 0;
#X connect 14 0 29 0;
#X connect 15 0 16 0;
#X connect 15 1 16 1;
#X connect 16 0 23 0;
#X connect 17 0 15 0;
#X connect 18 0 15 0;
#X connect 19 0 15 0;
#X connect 20 0 15 0;
#X connect 21 0 15 0;
#X connect 22 0 28 0;
#X connect 24 0 1 0;
#X connect 25 0 24 1;
#X connect 26 0 24 0;
#X connect 27 0 26 0;
#X connect 27 1 26 1;
#X connect 28 0 15 0;
#X connect 29 0 28 0;
#X connect 29 1 17 0;
#X connect 29 2 18 0;
#X connect 29 3 19 0;
#X connect 29 4 20 0;
#X connect 29 5 21 0;
#X restore 13 141 pd pitchBend;
#X obj 13 163 send \$0-bend;
#X obj 13 47 vradio 15 1 0 6 \$0-bendsettingRcv \$0-bendsetting BendSetting
0 -8 0 10 -4945 -186497 -133478 0;
#X text 33 62 2 Semitones;
#X text 33 77 3 Semitones;
#X text 33 92 4 Semitones;
#X text 33 106 Half Octave;
#X text 33 120 Full Octave;
#X symbolatom 80 8 75 0 0 0 SamplePath #0-samplepath #0-samplepathRcv
, f 75;
#N canvas 250 409 660 579 patchwrite 0;
#X obj 456 421 s;
#X obj 100 37 savepanel;
#X obj 22 256 textfile;
#X obj 223 253 textfile;
#X msg 576 121 clear;
#X msg 193 142 read \$1 cr;
#X msg 137 121 rewind;
#X obj 69 138 metro;
#X msg 29 112 stop;
#X msg 22 232 write \$1 cr;
#X obj 436 465 f;
#X obj 416 491 pack s f;
#X obj 476 376 pack s \$0;
#X obj 416 354 t s b b s;
#X msg 476 398 symbol \$2-\$1;
#X msg 223 554 add \$1 \$2;
#X obj 223 299 route samplepath;
#X obj 282 437 r \$0-samplepathRcv;
#X obj 223 350 t s b b s;
#X obj 283 372 pack s \$0;
#X msg 283 394 symbol \$2-\$1;
#X obj 263 416 s;
#X obj 243 459 symbol;
#X obj 223 485 pack s s;
#X obj 22 210 symbol;
#X obj 276 276 s \$0-endsave;
#X obj 100 60 t b s b b b;
#X obj 22 188 r \$0-endsave;
#X obj 416 331 symbol;
#X obj 29 90 r \$0-endsave;
#X msg 223 328 symbol samplepath;
#X obj 100 14 inlet;
#N canvas 66 847 1067 898 parametersRcv 0;
#X obj 48 51 r \$0-midichRcv;
#X obj 65 75 r \$0-nominalnoteRcv;
#X obj 106 138 r \$0-attackRcv;
#X obj 117 159 r \$0-decayRcv;
#X obj 127 180 r \$0-sustainRcv;
#X obj 138 201 r \$0-releaseRcv;
#X obj 29 25 r \$0-playbacktypeRcv;
#X obj 166 237 r \$0-waveformRcv;
#X obj 182 262 r \$0-bendsettingRcv;
#X obj 296 304 r \$0-samplespeedRcv;
#X obj 303 325 r \$0-chunksizeRcv;
#X obj 838 343 r \$0-samplespeedratioRcv;
#X obj 276 828 outlet;
#X obj 605 214 r \$0-verbTimeR;
#X obj 633 245 r \$0-wetVolR;
#X obj 647 275 r \$0-dryVolR;
#X obj 662 296 r \$0-mastVolR;
#X obj 852 392 r \$0-dryPanR;
#X obj 865 422 r \$0-dryPanTypeR;
#X obj 893 458 r \$0-wetPanR;
#X obj 906 488 r \$0-wetPanTypeR;
#X obj 472 145 r \$0-lowpassR;
#X obj 478 165 r \$0-highpassR;
#X obj 486 185 r \$0-vcfR;
#X obj 492 206 r \$0-vcfqR;
#X obj 84 99 r \$0-oneshotR;
#X obj 807 281 r \$0-sampLoopR;
#X obj 818 302 r \$0-sampStR;
#X obj 828 323 r \$0-sampEndR;
#X obj 289 96 r \$0-voicNumR;
#X connect 0 0 12 0;
#X connect 1 0 12 0;
#X connect 2 0 12 0;
#X connect 3 0 12 0;
#X connect 4 0 12 0;
#X connect 5 0 12 0;
#X connect 6 0 12 0;
#X connect 7 0 12 0;
#X connect 8 0 12 0;
#X connect 9 0 12 0;
#X connect 10 0 12 0;
#X connect 11 0 12 0;
#X connect 13 0 12 0;
#X connect 14 0 12 0;
#X connect 15 0 12 0;
#X connect 16 0 12 0;
#X connect 17 0 12 0;
#X connect 18 0 12 0;
#X connect 19 0 12 0;
#X connect 20 0 12 0;
#X connect 22 0 12 0;
#X connect 23 0 12 0;
#X connect 24 0 12 0;
#X connect 25 0 12 0;
#X connect 26 0 12 0;
#X connect 27 0 12 0;
#X connect 28 0 12 0;
#X connect 29 0 12 0;
#X restore 454 443 pd parametersRcv;
#X msg 193 120 symbol /home/pae/puredata/parameters/parameters.txt
;
#X connect 1 0 26 0;
#X connect 3 0 16 0;
#X connect 3 1 25 0;
#X connect 4 0 3 0;
#X connect 4 0 2 0;
#X connect 5 0 3 0;
#X connect 6 0 3 0;
#X connect 7 0 3 0;
#X connect 8 0 7 0;
#X connect 9 0 2 0;
#X connect 10 0 11 1;
#X connect 11 0 15 0;
#X connect 12 0 14 0;
#X connect 13 0 11 0;
#X connect 13 1 10 0;
#X connect 13 2 0 0;
#X connect 13 3 12 0;
#X connect 14 0 0 1;
#X connect 15 0 2 0;
#X connect 16 0 30 0;
#X connect 16 1 28 0;
#X connect 17 0 22 1;
#X connect 18 0 23 0;
#X connect 18 1 22 0;
#X connect 18 2 21 0;
#X connect 18 3 19 0;
#X connect 19 0 20 0;
#X connect 20 0 21 1;
#X connect 22 0 23 1;
#X connect 23 0 15 0;
#X connect 24 0 9 0;
#X connect 26 0 7 0;
#X connect 26 1 24 1;
#X connect 26 2 6 0;
#X connect 26 3 33 0;
#X connect 26 4 4 0;
#X connect 27 0 24 0;
#X connect 28 0 13 0;
#X connect 29 0 8 0;
#X connect 30 0 18 0;
#X connect 31 0 1 0;
#X connect 32 0 10 1;
#X connect 33 0 5 0;
#X restore 789 133 pd patchwrite;
#N canvas 1086 99 244 442 sampleload 0;
#X obj 10 9 inlet;
#X obj 10 30 openpanel;
#X obj 10 52 s \$0-samplepath;
#X obj 10 75 r \$0-samplepathRcv;
#X obj 10 220 soundfiler;
#X obj 35 122 symbol \$0-sample;
#X obj 65 312 * 1000;
#X obj 77 146 symbol \$0-sampleR;
#X obj 10 98 t s b b;
#X obj 10 171 pack s s s;
#X msg 10 196 read -resize \$1 \$2 \$3;
#X obj 84 268 s \$0-sampSize;
#X obj 65 335 s \$0-sampMsec;
#X obj 47 357 s \$0-fftData;
#X obj 65 288 / 44100;
#X obj 28 382 array min \$0-sampleR;
#X obj 10 406 array max \$0-sampleR;
#X obj 10 243 t b b b f f;
#X obj 10 451 &&;
#X obj 10 474 s \$0-stereo;
#X obj 10 429 != 0;
#X obj 46 429 != 0;
#X connect 0 0 1 0;
#X connect 1 0 2 0;
#X connect 3 0 8 0;
#X connect 4 0 17 0;
#X connect 5 0 9 1;
#X connect 6 0 12 0;
#X connect 7 0 9 2;
#X connect 8 0 9 0;
#X connect 8 1 5 0;
#X connect 8 2 7 0;
#X connect 9 0 10 0;
#X connect 10 0 4 0;
#X connect 14 0 6 0;
#X connect 15 0 21 0;
#X connect 16 0 20 0;
#X connect 17 0 16 0;
#X connect 17 1 15 0;
#X connect 17 2 13 0;
#X connect 17 3 14 0;
#X connect 17 4 11 0;
#X connect 18 0 19 0;
#X connect 20 0 18 0;
#X connect 21 0 18 1;
#X restore 789 88 pd sampleload;
#X floatatom 367 95 5 1 500 0 SampleSpeed #0-samplespeed #0-samplespeedRcv
, f 5;
#N canvas 750 516 206 262 midictl 0;
#X obj 11 158 pack f f f;
#X obj 11 199 route;
#X floatatom 43 179 5 0 0 0 - #0-midichRcv -, f 5;
#X obj 11 220 outlet;
#X obj 11 39 swap;
#X obj 11 16 ctlin;
#X obj 110 101 + 1;
#X obj 110 123 / 128;
#X obj 64 79 moses 1;
#X connect 0 0 1 0;
#X connect 1 0 3 0;
#X connect 2 0 1 1;
#X connect 4 0 0 0;
#X connect 4 1 8 0;
#X connect 5 0 4 0;
#X connect 5 1 0 1;
#X connect 5 2 4 1;
#X connect 6 0 7 0;
#X connect 7 0 0 2;
#X connect 8 0 0 2;
#X connect 8 1 6 0;
#X restore 557 212 pd midictl;
#N canvas 324 508 286 403 ctlroute 0;
#X obj 22 15 inlet;
#X obj 167 102 s \$0-mastVol;
#X obj 22 38 route 1 2 3 4 5 6 7 8 9 10 11;
#X obj 203 59 s \$0-wetPan;
#X obj 185 81 s \$0-dryPan;
#X obj 112 165 s \$0-verbTime;
#X obj 149 123 s \$0-dryVol;
#X obj 131 143 s \$0-wetVol;
#X obj 94 188 s \$0-highpassC;
#X obj 76 211 s \$0-lowpassC;
#X obj 58 232 s \$0-vcfqC;
#X obj 40 254 s \$0-vcfC;
#X connect 0 0 2 0;
#X connect 2 1 11 0;
#X connect 2 2 10 0;
#X connect 2 3 9 0;
#X connect 2 4 8 0;
#X connect 2 5 5 0;
#X connect 2 6 7 0;
#X connect 2 7 6 0;
#X connect 2 8 1 0;
#X connect 2 9 4 0;
#X connect 2 10 3 0;
#X restore 557 235 pd ctlroute;
#X floatatom 548 117 5 1 100 0 ChunkSize #0-chunksize #0-chunksizeRcv
, f 5;
#X floatatom 691 8 15 0 0 0 SampleSize #0-sampSize -, f 15;
#N canvas 1364 1288 414 395 zerosamples 0;
#X obj 45 49 until;
#X obj 45 73 f;
#X obj 80 73 + 1;
#X msg 44 24 bang;
#X msg 116 24 10;
#X obj 80 115 mod;
#X obj 98 94 r \$0-samplesize;
#X obj 125 66 sel 0;
#X obj 45 161 tabread \$0-sample;
#X obj 80 270 f;
#X obj 45 182 t f f;
#X obj 45 204 == 0;
#X obj 45 226 sel 1;
#X obj 45 314 print;
#X obj 45 138 t f f;
#X obj 45 269 f;
#X obj 45 248 t b b;
#X obj 45 291 pack f f;
#X obj 260 40 until;
#X obj 260 64 f;
#X obj 295 64 + 1;
#X msg 259 15 bang;
#X msg 331 15 10;
#X obj 340 57 sel 0;
#X obj 260 212 tabread \$0-sample;
#X obj 295 325 f;
#X obj 260 233 t f f;
#X obj 260 256 == 0;
#X obj 260 278 sel 1;
#X obj 260 369 print;
#X obj 260 190 t f f;
#X obj 260 324 f;
#X obj 260 300 t b b;
#X obj 260 347 pack f f;
#X obj 295 87 mod 100;
#X obj 278 147 r \$0-samplesize;
#X obj 260 169 *;
#X obj 259 114 * 0.01;
#X obj 44 2 inlet;
#X connect 0 0 1 0;
#X connect 1 0 2 0;
#X connect 1 0 14 0;
#X connect 2 0 5 0;
#X connect 3 0 0 0;
#X connect 4 0 0 0;
#X connect 5 0 1 1;
#X connect 5 0 7 0;
#X connect 6 0 5 1;
#X connect 7 0 0 1;
#X connect 8 0 10 0;
#X connect 9 0 17 1;
#X connect 10 0 11 0;
#X connect 10 1 9 1;
#X connect 11 0 12 0;
#X connect 12 0 16 0;
#X connect 14 0 8 0;
#X connect 14 1 15 1;
#X connect 15 0 17 0;
#X connect 16 0 15 0;
#X connect 16 1 9 0;
#X connect 17 0 13 0;
#X connect 18 0 19 0;
#X connect 19 0 20 0;
#X connect 19 0 37 0;
#X connect 20 0 34 0;
#X connect 21 0 18 0;
#X connect 22 0 18 0;
#X connect 23 0 18 1;
#X connect 24 0 26 0;
#X connect 25 0 33 1;
#X connect 26 0 27 0;
#X connect 26 1 25 1;
#X connect 27 0 28 0;
#X connect 28 0 32 0;
#X connect 30 0 24 0;
#X connect 30 1 31 1;
#X connect 31 0 33 0;
#X connect 32 0 31 0;
#X connect 32 1 25 0;
#X connect 33 0 29 0;
#X connect 34 0 19 1;
#X connect 34 0 23 0;
#X connect 35 0 36 1;
#X connect 36 0 30 0;
#X connect 37 0 36 0;
#X connect 38 0 3 0;
#X restore 622 176 pd zerosamples;
#X obj 622 156 bng 15 250 50 0 empty empty empty 17 7 0 10 -112434
-1 -1;
#X floatatom 529 66 10 0 0 0 SampleLoopStart #0-sampSt #0-sampStR,
f 10;
#X floatatom 529 84 10 0 0 0 SampleLoopEnd #0-sampEnd #0-sampEndR,
f 10;
#X floatatom 529 48 5 0 1 0 SampleLoop #0-sampLoop #0-sampLoopR, f
5;
#X obj 621 128 s \$0-sampleloopstart;
#X obj 633 105 s \$0-sampleloopend;
#X floatatom 367 77 5 1 5 0 SampleSpeedRatio #0-samplespeedratio #0-samplespeedratioRcv
, f 5;
#N canvas 116 50 689 549 testnote 0;
#X msg 28 145 bang;
#X msg 140 150 bang;
#X msg 169 218 0;
#X msg 29 209 60;
#X msg 137 218 60;
#X msg 28 10 1;
#X msg 37 32 0;
#X obj 28 85 metro 200;
#X obj 80 393 outlet;
#X msg 86 10 10;
#X msg 120 10 20;
#X msg 155 10 30;
#X msg 188 10 40;
#X msg 222 10 50;
#X msg 255 10 100;
#X msg 252 37 200;
#X msg 246 70 300;
#X msg 229 97 500;
#X msg 219 127 1000;
#X obj 110 331 pack f f;
#X obj 141 170 t b b;
#X obj 27 165 t b b;
#X msg 60 209 127;
#X msg 424 32 bang;
#X obj 424 54 until;
#X obj 424 76 f;
#X obj 478 83 + 1;
#X obj 478 105 mod 128;
#X obj 479 126 sel 0;
#X msg 450 128 0;
#X obj 424 98 t f b;
#X connect 0 0 21 0;
#X connect 1 0 20 0;
#X connect 2 0 19 1;
#X connect 3 0 19 0;
#X connect 4 0 19 0;
#X connect 5 0 7 0;
#X connect 6 0 7 0;
#X connect 6 0 1 0;
#X connect 7 0 0 0;
#X connect 9 0 7 1;
#X connect 10 0 7 1;
#X connect 11 0 7 1;
#X connect 12 0 7 1;
#X connect 13 0 7 1;
#X connect 14 0 7 1;
#X connect 15 0 7 1;
#X connect 16 0 7 1;
#X connect 17 0 7 1;
#X connect 18 0 7 1;
#X connect 19 0 8 0;
#X connect 20 0 4 0;
#X connect 20 1 2 0;
#X connect 21 0 3 0;
#X connect 21 1 22 0;
#X connect 22 0 19 1;
#X connect 23 0 24 0;
#X connect 24 0 25 0;
#X connect 25 0 30 0;
#X connect 25 0 26 0;
#X connect 26 0 27 0;
#X connect 27 0 28 0;
#X connect 27 0 25 1;
#X connect 28 0 24 1;
#X connect 29 0 19 1;
#X connect 30 0 19 0;
#X connect 30 1 29 0;
#X restore 476 233 pd testnote;
#X floatatom 367 114 5 0 0 0 SampleLocation #0-sampLoc #0-sampLocRcv
, f 5;
#N canvas 715 793 392 129 ctlparameters 0;
#N canvas 1771 1052 228 160 samplespeed 0;
#X obj 15 111 s \$0-samplespeed;
#X obj 33 67 r \$0-samplespeedratioRcv;
#X obj 15 88 *;
#X obj 15 46 / 1.27;
#X obj 15 24 r \$0-sampSpdCtl;
#X connect 1 0 2 1;
#X connect 2 0 0 0;
#X connect 3 0 2 0;
#X connect 4 0 3 0;
#X restore 20 61 pd samplespeed;
#N canvas 1811 1330 201 166 samplelocation 0;
#X obj 35 24 r \$0-sampLocCtl;
#X obj 35 46 / 127;
#X obj 53 69 r \$0-samplesize;
#X obj 35 91 *;
#X obj 35 113 s \$0-sampLoc;
#X connect 0 0 1 0;
#X connect 1 0 3 0;
#X connect 2 0 3 1;
#X connect 3 0 4 0;
#X restore 133 66 pd samplelocation;
#N canvas 668 465 284 115 vcf 0;
#X obj 32 20 r \$0-vcfC;
#X obj 32 42 * 20000;
#X obj 32 64 s \$0-vcf;
#X connect 0 0 1 0;
#X connect 1 0 2 0;
#X restore 23 10 pd vcf;
#N canvas 824 583 284 115 vcfq 0;
#X obj 32 42 * 20000;
#X obj 32 20 r \$0-vcfqC;
#X obj 32 64 s \$0-vcfq;
#X connect 0 0 2 0;
#X connect 1 0 0 0;
#X restore 75 12 pd vcfq;
#N canvas 598 782 284 115 lowpass 0;
#X obj 32 42 * 20000;
#X obj 32 20 r \$0-lowpassC;
#X obj 32 64 s \$0-lowpass;
#X connect 0 0 2 0;
#X connect 1 0 0 0;
#X restore 135 14 pd lowpass;
#N canvas 876 811 284 115 highpass 0;
#X obj 32 42 * 20000;
#X obj 32 20 r \$0-highpassC;
#X obj 32 64 s \$0-highpass;
#X connect 0 0 2 0;
#X connect 1 0 0 0;
#X restore 218 13 pd highpass;
#X restore 634 210 pd ctlparameters;
#X msg 621 60;
#X msg 633 82;
#X msg 670 55 60;
#X obj 670 77 s \$0-nominalnote;
#X obj 377 44 tgl 15 0 \$0-oneshotR \$0-oneshot Oneshot 17 7 0 10 -112434
-1 -1 0 1;
#N canvas 0 50 450 250 (subpatch) 0;
#X array \$0-sampleR 8073 float 0;
#X coords 0 1 8072 -1 200 140 1 0 0;
#X restore 224 202 graph;
#X floatatom 877 8 10 0 0 0 SampleMsec #0-sampMsec -, f 10;
#X obj 957 8 tgl 15 0 \$0-stereoR \$0-stereo Stereo 17 7 0 10 -112434
-1 -1 0 1;
#X text 33 48 Off;
#N canvas 1139 458 426 449 noteroute 0;
#X obj 68 196 unpack;
#X obj 303 306 -;
#X floatatom 321 289 5 0 0 0 - #0-nominalnoteRcv -, f 5;
#X obj 22 149 pack f f;
#X obj 22 6 inlet;
#X msg 22 285 0;
#X msg 335 353 1;
#X obj 22 104 unpack;
#X obj 22 126 swap;
#X obj 199 97 spigot;
#X obj 22 82 spigot;
#X obj 61 62 == 0;
#X obj 199 137 route;
#X floatatom 231 119 5 0 0 0 - #0-nominalnoteRcv -, f 5;
#X msg 231 211 0;
#X obj 22 171 route 0;
#X obj 199 158 sel 0;
#X obj 22 240 sel;
#X obj 199 189 t f b;
#X obj 303 329 t f b;
#X obj 138 5 r \$0-oneshotR;
#X obj 131 285 outlet velocity;
#X obj 22 307 outlet env;
#X obj 303 393 outlet pitch;
#X connect 0 0 21 0;
#X connect 0 1 1 0;
#X connect 0 1 17 1;
#X connect 1 0 19 0;
#X connect 2 0 1 1;
#X connect 3 0 15 0;
#X connect 4 0 10 0;
#X connect 4 0 9 0;
#X connect 5 0 22 0;
#X connect 6 0 22 0;
#X connect 7 0 8 0;
#X connect 7 1 8 1;
#X connect 8 0 3 0;
#X connect 8 1 3 1;
#X connect 9 0 12 0;
#X connect 10 0 7 0;
#X connect 11 0 10 1;
#X connect 12 0 16 0;
#X connect 13 0 12 1;
#X connect 14 0 19 0;
#X connect 15 0 17 0;
#X connect 15 1 0 0;
#X connect 16 0 5 0;
#X connect 16 1 18 0;
#X connect 17 0 5 0;
#X connect 18 0 21 0;
#X connect 18 1 14 0;
#X connect 19 0 23 0;
#X connect 19 1 6 0;
#X connect 20 0 9 1;
#X connect 20 0 11 0;
#X restore 468 255 pd noteroute;
#N canvas 577 125 889 545 fft 0;
#X obj 83 336 fftsampler;
#X obj 116 311 r \$0-bend;
#X obj 190 152 f \$0;
#X msg 190 174 \$1-sample;
#X obj 190 196 symbol;
#X obj 453 312 r \$0-bend;
#X obj 528 154 f \$0;
#X obj 528 198 symbol;
#X msg 528 176 \$1-sampleR;
#X obj 575 244 r \$0-sampLoopR;
#X obj 599 266 r \$0-sampStR;
#X obj 623 288 r \$0-sampEndR;
#X obj 528 313 pack s f f f f;
#X obj 237 242 r \$0-sampLoopR;
#X obj 261 264 r \$0-sampStR;
#X obj 285 286 r \$0-sampEndR;
#X obj 190 311 pack s f f f f;
#X obj 213 219 r \$0-sampSize;
#X obj 551 221 r \$0-sampSize;
#X obj 420 337 fftsampler;
#X obj 190 130 r \$0-fftData;
#X obj 528 132 r \$0-fftData;
#X obj 437 365 r \$0-stereo;
#X obj 269 359 r \$0-stereo;
#X obj 252 426 *~;
#X obj 437 387 sig~ 1;
#X obj 269 404 sig~ 0;
#X obj 269 382 == 0;
#X obj 63 29 inlet pitch;
#X obj 83 461 outlet~ left;
#X obj 419 411 *~;
#X obj 419 466 outlet~ right;
#X connect 0 0 24 0;
#X connect 0 0 29 0;
#X connect 1 0 0 1;
#X connect 2 0 3 0;
#X connect 3 0 4 0;
#X connect 4 0 16 0;
#X connect 5 0 19 1;
#X connect 6 0 8 0;
#X connect 7 0 12 0;
#X connect 8 0 7 0;
#X connect 9 0 12 2;
#X connect 10 0 12 3;
#X connect 11 0 12 4;
#X connect 12 0 19 2;
#X connect 13 0 16 2;
#X connect 14 0 16 3;
#X connect 15 0 16 4;
#X connect 16 0 0 2;
#X connect 17 0 16 1;
#X connect 18 0 12 1;
#X connect 19 0 30 0;
#X connect 20 0 2 0;
#X connect 21 0 6 0;
#X connect 22 0 25 0;
#X connect 23 0 27 0;
#X connect 24 0 31 0;
#X connect 25 0 30 1;
#X connect 26 0 24 1;
#X connect 27 0 26 0;
#X connect 28 0 0 0;
#X connect 28 0 19 0;
#X connect 30 0 31 0;
#X restore 537 277 pd fft;
#N canvas 147 524 312 276 env 1;
#X floatatom 64 107 5 0 0 0 - #0-attackRcv -, f 5;
#X floatatom 86 123 5 0 0 0 - #0-decayRcv -, f 5;
#X floatatom 108 141 5 0 0 0 - #0-sustainRcv -, f 5;
#X floatatom 130 157 5 0 0 0 - #0-releaseRcv -, f 5;
#X obj 21 175 adsr 1 0 0 100 0;
#X obj 20 200 tabread4~ \$0-dbtorms;
#X obj 42 62 + 1;
#X obj 42 84 / 1.28;
#X obj 21 17 inlet env;
#X obj 42 40 inlet velocity;
#X obj 20 224 outlet~;
#N canvas 509 808 430 263 \$0-dbtorms 1;
#N canvas 0 50 450 250 (subpatch) 0;
#X array \$0-dbtorms 123 float 0;
#X coords 0 10 122 0 200 140 1 0 0;
#X restore 200 54 graph;
#X obj 35 165 moses 2;
#X obj 19 43 t b b;
#X obj 90 104 f;
#X obj 128 104 + 1;
#X msg 112 76 0;
#X obj 19 72 until;
#X obj 11 132 sel 122;
#X msg 35 196 0;
#X obj 79 197 dbtorms;
#X obj 90 132 t f f;
#X obj 35 229 tabwrite \$0-dbtorms;
#X obj 19 20 loadbang;
#X connect 1 0 8 0;
#X connect 1 1 9 0;
#X connect 2 0 6 0;
#X connect 2 1 5 0;
#X connect 3 0 4 0;
#X connect 3 0 7 0;
#X connect 3 0 10 0;
#X connect 4 0 3 1;
#X connect 5 0 3 1;
#X connect 6 0 3 0;
#X connect 7 0 6 1;
#X connect 8 0 11 0;
#X connect 9 0 11 0;
#X connect 10 0 1 0;
#X connect 10 1 11 1;
#X connect 12 0 2 0;
#X restore 154 199 pd \$0-dbtorms;
#N canvas 543 369 450 300 \$0-velocity2rms 1;
#X restore 185 161 pd \$0-velocity2rms;
#X connect 0 0 4 2;
#X connect 1 0 4 3;
#X connect 2 0 4 4;
#X connect 3 0 4 5;
#X connect 4 0 5 0;
#X connect 5 0 10 0;
#X connect 6 0 7 0;
#X connect 7 0 4 1;
#X connect 8 0 4 0;
#X connect 9 0 6 0;
#X restore 468 277 pd env;
#X obj 468 300 *~;
#X obj 556 300 *~;
#X obj 665 323 print;
#X obj 581 425 print udp;
#X obj 424 396 netsend~ 2;
#X msg 407 364 connect localhost 3002;
#X obj 593 367 netreceive -u -b 3001;
#X obj 687 430 unpack f f f;
#X floatatom 756 461 5 0 0 0 - - -, f 5;
#X floatatom 722 483 5 0 0 0 - - -, f 5;
#X floatatom 673 486 5 0 0 0 - - -, f 5;
#X obj 606 521 pack f f;
#X obj 529 504 print;
#X connect 0 0 26 0;
#X connect 2 0 5 0;
#X connect 4 0 3 0;
#X connect 6 0 52 0;
#X connect 7 0 8 0;
#X connect 8 0 5 0;
#X connect 9 0 25 0;
#X connect 16 0 17 0;
#X connect 18 0 16 0;
#X connect 28 0 29 0;
#X connect 33 0 32 0;
#X connect 40 0 52 0;
#X connect 43 0 37 0;
#X connect 44 0 38 0;
#X connect 45 0 46 0;
#X connect 52 0 54 0;
#X connect 52 1 54 1;
#X connect 52 2 53 0;
#X connect 53 0 55 1;
#X connect 53 1 56 1;
#X connect 54 0 55 0;
#X connect 54 0 56 0;
#X connect 55 0 59 0;
#X connect 55 0 15 0;
#X connect 56 0 59 1;
#X connect 56 0 15 1;
#X connect 60 0 59 0;
#X connect 61 0 62 0;
#X connect 62 0 65 0;
#X connect 62 1 64 0;
#X connect 62 1 66 0;
#X connect 62 2 63 0;
#X connect 62 2 66 1;
#X connect 66 0 52 0;
#X connect 66 0 67 0;
