#N canvas 81 257 875 688 10;
#X obj 110 86 openpanel;
#X obj 110 67 bng 15 250 50 0 empty empty empty 17 7 0 10 -262144 -1
-1;
#X obj 110 172 readsf~ 2;
#X msg 110 108 open \$1;
#X obj 97 309 dac~;
#X msg 118 130 1;
#X msg 124 151 0;
#X obj 267 89 openpanel;
#X obj 267 70 bng 15 250 50 0 empty empty empty 17 7 0 10 -262144 -1
-1;
#X obj 267 175 readsf~ 2;
#X msg 267 111 open \$1;
#X msg 275 133 1;
#X msg 281 154 0;
#X obj 526 27 ctlin 1;
#X obj 565 69 + 1;
#X obj 565 89 / 128;
#X obj 526 49 moses 1;
#X obj 526 113 s \$0-c1;
#X obj 650 68 + 1;
#X obj 650 88 / 128;
#X obj 611 48 moses 1;
#X obj 611 26 ctlin 2;
#X obj 611 112 s \$0-c2;
#X obj 731 24 ctlin 10;
#X obj 770 66 + 1;
#X obj 770 86 / 128;
#X obj 731 46 moses 1;
#X obj 731 110 s \$0-c10;
#N canvas 1076 717 430 263 dbtorms 1;
#N canvas 0 50 450 250 (subpatch) 0;
#X array \$0-dbtorms 123 float 0;
#X coords 0 10 122 0 200 140 1 0 0;
#X restore 200 54 graph;
#X obj 35 165 moses 2;
#X obj 19 43 t b b;
#X obj 90 104 f;
#X obj 128 104 + 1;
#X msg 112 76 0;
#X obj 19 72 until;
#X obj 11 132 sel 122;
#X msg 35 196 0;
#X obj 79 197 dbtorms;
#X obj 90 132 t f f;
#X obj 35 229 tabwrite \$0-dbtorms;
#X obj 19 20 loadbang;
#X connect 1 0 8 0;
#X connect 1 1 9 0;
#X connect 2 0 6 0;
#X connect 2 1 5 0;
#X connect 3 0 4 0;
#X connect 3 0 7 0;
#X connect 3 0 10 0;
#X connect 4 0 3 1;
#X connect 5 0 3 1;
#X connect 6 0 3 0;
#X connect 7 0 6 1;
#X connect 8 0 11 0;
#X connect 9 0 11 0;
#X connect 10 0 1 0;
#X connect 10 1 11 1;
#X connect 12 0 2 0;
#X restore 526 160 pd dbtorms;
#N canvas 110 473 450 215 vol1 0;
#X obj 19 9 inlet~;
#X obj 73 9 inlet~;
#X obj 18 68 outlet~;
#X obj 75 68 outlet~;
#X obj 18 42 *~;
#X obj 74 42 *~;
#X msg 194 131 \$1 5;
#X msg 369 110 \$1 5;
#X obj 369 132 line~;
#X obj 369 88 / 127;
#X obj 194 64 + 50;
#X text 354 63 Linear;
#X text 205 23 dbtorms 50 - 100;
#X obj 194 42 * 50;
#X obj 194 153 vline~;
#X obj 194 175 tabread4~ \$0-dbtorms;
#X obj 194 87 moses 50;
#X msg 194 109 0;
#X obj 191 6 r \$0-c1;
#X connect 0 0 4 0;
#X connect 1 0 5 0;
#X connect 4 0 2 0;
#X connect 5 0 3 0;
#X connect 6 0 14 0;
#X connect 7 0 8 0;
#X connect 9 0 7 0;
#X connect 10 0 16 0;
#X connect 13 0 10 0;
#X connect 14 0 15 0;
#X connect 15 0 4 1;
#X connect 15 0 5 1;
#X connect 16 0 17 0;
#X connect 16 1 6 0;
#X connect 17 0 6 0;
#X connect 18 0 13 0;
#X restore 109 196 pd vol1;
#N canvas 98 498 450 215 vol2 0;
#X obj 19 9 inlet~;
#X obj 73 9 inlet~;
#X obj 18 68 outlet~;
#X obj 75 68 outlet~;
#X obj 18 42 *~;
#X obj 74 42 *~;
#X msg 194 131 \$1 5;
#X msg 369 110 \$1 5;
#X obj 369 132 line~;
#X obj 369 88 / 127;
#X obj 194 64 + 50;
#X text 354 63 Linear;
#X text 205 23 dbtorms 50 - 100;
#X obj 194 42 * 50;
#X obj 194 153 vline~;
#X obj 194 175 tabread4~ \$0-dbtorms;
#X obj 194 87 moses 50;
#X msg 194 109 0;
#X obj 191 6 r \$0-c2;
#X connect 0 0 4 0;
#X connect 1 0 5 0;
#X connect 4 0 2 0;
#X connect 5 0 3 0;
#X connect 6 0 14 0;
#X connect 7 0 8 0;
#X connect 9 0 7 0;
#X connect 10 0 16 0;
#X connect 13 0 10 0;
#X connect 14 0 15 0;
#X connect 15 0 4 1;
#X connect 15 0 5 1;
#X connect 16 0 17 0;
#X connect 16 1 6 0;
#X connect 17 0 6 0;
#X connect 18 0 13 0;
#X restore 266 198 pd vol2;
#X obj 280 411 writesf~ 2;
#X msg 312 324 start;
#X msg 323 345 stop;
#X obj 303 281 savepanel;
#X msg 303 303 open -bytes 4 \$1;
#X obj 303 261 bng 15 250 50 0 empty empty empty 17 7 0 10 -262144
-1 -1;
#N canvas 1012 321 547 447 balance 0;
#X obj 13 9 inlet~;
#X obj 81 213 outlet~;
#X obj 13 108 *~;
#X obj 267 111 *~;
#X obj 141 336 abs;
#X obj 141 313 - 1;
#X obj 252 312 sqrt;
#X obj 141 358 sqrt;
#X text 191 266 SquareRoot;
#X obj 266 10 inlet~;
#X msg 31 65 \$1 5;
#X obj 31 86 vline~;
#X msg 285 66 \$1 5;
#X obj 285 87 vline~;
#X obj 394 109 *~;
#X obj 309 206 outlet~;
#X obj 393 8 inlet~;
#X msg 412 64 \$1 5;
#X obj 412 85 vline~;
#X obj 138 6 inlet~;
#X obj 138 105 *~;
#X msg 156 62 \$1 5;
#X obj 156 83 vline~;
#X obj 140 397 s \$0-balanceCalcL;
#X obj 276 385 s \$0-balanceCalcR;
#X obj 412 42 r \$0-balanceCalcR;
#X obj 285 44 r \$0-balanceCalcR;
#X obj 156 39 r \$0-balanceCalcL;
#X obj 31 42 r \$0-balanceCalcL;
#X obj 68 335 r \$0-c10;
#X obj 315 321 r \$0-c10;
#X connect 0 0 2 0;
#X connect 2 0 1 0;
#X connect 3 0 1 0;
#X connect 4 0 7 0;
#X connect 5 0 4 0;
#X connect 9 0 3 0;
#X connect 10 0 11 0;
#X connect 11 0 2 1;
#X connect 12 0 13 0;
#X connect 13 0 3 1;
#X connect 14 0 15 0;
#X connect 16 0 14 0;
#X connect 17 0 18 0;
#X connect 18 0 14 1;
#X connect 19 0 20 0;
#X connect 20 0 15 0;
#X connect 21 0 22 0;
#X connect 22 0 20 1;
#X connect 25 0 17 0;
#X connect 26 0 12 0;
#X connect 27 0 21 0;
#X connect 28 0 10 0;
#X connect 29 0 23 0;
#X connect 30 0 24 0;
#X restore 159 250 pd balance;
#X connect 0 0 3 0;
#X connect 1 0 0 0;
#X connect 2 0 29 0;
#X connect 2 1 29 1;
#X connect 3 0 2 0;
#X connect 5 0 2 0;
#X connect 6 0 2 0;
#X connect 7 0 10 0;
#X connect 8 0 7 0;
#X connect 9 0 30 0;
#X connect 9 1 30 1;
#X connect 10 0 9 0;
#X connect 11 0 9 0;
#X connect 12 0 9 0;
#X connect 13 0 16 0;
#X connect 14 0 15 0;
#X connect 15 0 17 0;
#X connect 16 0 17 0;
#X connect 16 1 14 0;
#X connect 18 0 19 0;
#X connect 19 0 22 0;
#X connect 20 0 22 0;
#X connect 20 1 18 0;
#X connect 21 0 20 0;
#X connect 23 0 26 0;
#X connect 24 0 25 0;
#X connect 25 0 27 0;
#X connect 26 0 27 0;
#X connect 26 1 24 0;
#X connect 29 0 37 0;
#X connect 29 1 37 1;
#X connect 30 0 37 2;
#X connect 30 1 37 3;
#X connect 32 0 31 0;
#X connect 33 0 31 0;
#X connect 34 0 35 0;
#X connect 35 0 31 0;
#X connect 36 0 34 0;
#X connect 37 0 4 0;
#X connect 37 0 31 0;
#X connect 37 1 4 1;
#X connect 37 1 31 1;
