#N struct template-array float num array channel template-element array
note template-element array velocity template-element;
#N struct template-element float element;
#N canvas 414 29 1545 1088 10;
#N canvas 756 165 848 299 template-array 0;
#X obj 25 36 struct template-array float num array channel template-element
array note template-element array velocity template-element;
#X restore 20 26 pd template-array;
#N canvas 1349 722 450 300 template-element 0;
#X obj 60 88 struct template-element float element;
#X restore 18 49 pd template-element;
#N canvas 1136 629 450 300 array-data 0;
#X scalar template-array 0 \; 1 \; 0 \; 0 \; 0 \; 0 \; 0 \; 0 \; 0
\; 0 \; 0 \; 0 \; 0 \; 0 \; 0 \; 0 \; 0 \; 0 \; 0 \; 0 \; 0 \; 0 \;
0 \; 0 \; 0 \; 0 \; 0 \; 0 \; 0 \; 0 \; 0 \; 0 \; 0 \; 0 \; 0 \; 0
\; 0 \; 0 \; 0 \; 0 \; 0 \; 0 \; 0 \; 0 \; 0 \; 0 \; 0 \; 0 \; 0 \;
0 \; 0 \; 0 \; 0 \; 0 \; 0 \; 0 \; 0 \; 0 \; 0 \; 0 \; 0 \; 0 \; 0
\; 0 \; 0 \; 0 \; 0 \; 0 \; 0 \; 0 \; 0 \; 0 \; 0 \; 0 \; 0 \; 0 \;
0 \; 0 \; 0 \; 0 \; 0 \; 0 \; 0 \; 0 \; 0 \; 0 \; 0 \; 0 \; 0 \; 0
\; 0 \; 0 \; 0 \; 0 \; 0 \; 0 \; 1 \; 1 \; 0 \; 0 \; 0 \; 0 \; 0 \;
0 \; 0 \; 0 \; 0 \; 0 \; 0 \; 0 \; 0 \; 0 \; 0 \; 0 \; 0 \; 0 \; 0
\; 0 \; 0 \; 0 \; 0 \; 0 \; 0 \; 0 \; 0 \; 0 \; 0 \; 0 \; 0 \; 0 \;
0 \; 0 \; 0 \; 0 \; 0 \; 0 \; 0 \; 0 \; 0 \; 0 \; 0 \; 0 \; 0 \; 0
\; 0 \; 0 \; 0 \; 0 \; 0 \; 0 \; 0 \; 0 \; 0 \; 0 \; 0 \; 0 \; 0 \;
0 \; 0 \; 0 \; 0 \; 0 \; 0 \; 0 \; 0 \; 0 \; 0 \; 0 \; 0 \; 0 \; 0
\; 0 \; 0 \; 0 \; 0 \; 0 \; 0 \; 0 \; 0 \; 0 \; 0 \; 0 \; 0 \; 0 \;
0 \; 0 \; 0 \; 0 \; 0 \; 0 \; 0 \; 0 \; 1 \; 1 \; 0 \; 0 \; 0 \; 0
\; 0 \; 0 \; 0 \; 0 \; 0 \; 0 \; 0 \; 0 \; 0 \; 0 \; 0 \; 0 \; 0 \;
0 \; 0 \; 0 \; 0 \; 0 \; 0 \; 0 \; 0 \; 0 \; 0 \; 0 \; 0 \; 0 \; 0
\; 0 \; 0 \; 0 \; 0 \; 0 \; 0 \; 0 \; 0 \; 0 \; 0 \; 0 \; 0 \; 0 \;
0 \; 0 \; 1 \; 1 \; 0 \; 0 \; 0 \; 0 \; 0 \; 0 \; 0 \; 0 \; 0 \; 0
\; 0 \; 0 \; 0 \; 0 \; 0 \; 0 \; 0 \; 0 \; 0 \; 0 \; 0 \; 0 \; 0 \;
0 \; 0 \; 0 \; 0 \; 0 \; 0 \; 0 \; 0 \; 0 \; 0 \; 0 \; 0 \; 0 \; 0
\; 0 \; 0 \; 0 \; 0 \; 0 \; 0 \; 0 \; 0 \; 0 \; 1 \; 1 \; 0 \; 0 \;
0 \; 0 \; 0 \; 0 \; 0 \; 0 \; 0 \; 0 \; 0 \; 0 \; 0 \; 0 \; 0 \; 0
\; 0 \; 0 \; 0 \; 0 \; 0 \; 0 \; 0 \; 0 \; 0 \; 0 \; 0 \; 0 \; 0 \;
0 \; 0 \; 0 \; 0 \; 0 \; 0 \; 0 \; 0 \; 0 \; 0 \; 0 \; 0 \; 0 \; 0
\; 0 \; 0 \; 0 \; 1 \; 1 \; 0 \; 0 \; 0 \; 0 \; 0 \; 0 \; 0 \; 0 \;
0 \; 0 \; 0 \; 0 \; 0 \; 0 \; 0 \; 0 \; 0 \; 0 \; 0 \; 0 \; 0 \; 0
\; 0 \; 0 \; 0 \; 0 \; 0 \; 0 \; 0 \; 0 \; 0 \; 0 \; 0 \; 0 \; 0 \;
0 \; 0 \; 0 \; 0 \; 0 \; 0 \; 0 \; 0 \; 0 \; 0 \; 0 \; 1 \; \; 60 \;
0 \; 0 \; 0 \; 0 \; 0 \; 0 \; 0 \; 0 \; 0 \; 0 \; 0 \; 0 \; 0 \; 0
\; 0 \; 0 \; 0 \; 0 \; 0 \; 0 \; 0 \; 0 \; 0 \; 0 \; 0 \; 0 \; 0 \;
0 \; 0 \; 0 \; 0 \; 0 \; 0 \; 0 \; 0 \; 0 \; 0 \; 0 \; 0 \; 0 \; 0
\; 0 \; 0 \; 0 \; 0 \; 0 \; 0 \; 0 \; 0 \; 0 \; 0 \; 0 \; 0 \; 0 \;
0 \; 0 \; 0 \; 0 \; 0 \; 0 \; 0 \; 0 \; 0 \; 0 \; 0 \; 0 \; 0 \; 0
\; 0 \; 0 \; 0 \; 0 \; 0 \; 0 \; 0 \; 0 \; 0 \; 0 \; 0 \; 0 \; 0 \;
0 \; 0 \; 0 \; 0 \; 0 \; 0 \; 0 \; 0 \; 0 \; 0 \; 0 \; 0 \; 0 \; 60
\; 60 \; 0 \; 0 \; 0 \; 0 \; 0 \; 0 \; 0 \; 0 \; 0 \; 0 \; 0 \; 0 \;
0 \; 0 \; 0 \; 0 \; 0 \; 0 \; 0 \; 0 \; 0 \; 0 \; 0 \; 0 \; 0 \; 0
\; 0 \; 0 \; 0 \; 0 \; 0 \; 0 \; 0 \; 0 \; 0 \; 0 \; 0 \; 0 \; 0 \;
0 \; 0 \; 0 \; 0 \; 0 \; 0 \; 0 \; 0 \; 0 \; 0 \; 0 \; 0 \; 0 \; 0
\; 0 \; 0 \; 0 \; 0 \; 0 \; 0 \; 0 \; 0 \; 0 \; 0 \; 0 \; 0 \; 0 \;
0 \; 0 \; 0 \; 0 \; 0 \; 0 \; 0 \; 0 \; 0 \; 0 \; 0 \; 0 \; 0 \; 0
\; 0 \; 0 \; 0 \; 0 \; 0 \; 0 \; 0 \; 0 \; 0 \; 0 \; 0 \; 0 \; 0 \;
0 \; 60 \; 60 \; 0 \; 0 \; 0 \; 0 \; 0 \; 0 \; 0 \; 0 \; 0 \; 0 \;
0 \; 0 \; 0 \; 0 \; 0 \; 0 \; 0 \; 0 \; 0 \; 0 \; 0 \; 0 \; 0 \; 0
\; 0 \; 0 \; 0 \; 0 \; 0 \; 0 \; 0 \; 0 \; 0 \; 0 \; 0 \; 0 \; 0 \;
0 \; 0 \; 0 \; 0 \; 0 \; 0 \; 0 \; 0 \; 0 \; 60 \; 60 \; 0 \; 0 \;
0 \; 0 \; 0 \; 0 \; 0 \; 0 \; 0 \; 0 \; 0 \; 0 \; 0 \; 0 \; 0 \; 0
\; 0 \; 0 \; 0 \; 0 \; 0 \; 0 \; 0 \; 0 \; 0 \; 0 \; 0 \; 0 \; 0 \;
0 \; 0 \; 0 \; 0 \; 0 \; 0 \; 0 \; 0 \; 0 \; 0 \; 0 \; 0 \; 0 \; 0
\; 0 \; 0 \; 0 \; 60 \; 60 \; 0 \; 0 \; 0 \; 0 \; 0 \; 0 \; 0 \; 0
\; 0 \; 0 \; 0 \; 0 \; 0 \; 0 \; 0 \; 0 \; 0 \; 0 \; 0 \; 0 \; 0 \;
0 \; 0 \; 0 \; 0 \; 0 \; 0 \; 0 \; 0 \; 0 \; 0 \; 0 \; 0 \; 0 \; 0
\; 0 \; 0 \; 0 \; 0 \; 0 \; 0 \; 0 \; 0 \; 0 \; 0 \; 0 \; 60 \; 60
\; 0 \; 0 \; 0 \; 0 \; 0 \; 0 \; 0 \; 0 \; 0 \; 0 \; 0 \; 0 \; 0 \;
0 \; 0 \; 0 \; 0 \; 0 \; 0 \; 0 \; 0 \; 0 \; 0 \; 0 \; 0 \; 0 \; 0
\; 0 \; 0 \; 0 \; 0 \; 0 \; 0 \; 0 \; 0 \; 0 \; 0 \; 0 \; 0 \; 0 \;
0 \; 0 \; 0 \; 0 \; 0 \; 0 \; 60 \; \; 120 \; 0 \; 0 \; 0 \; 0 \; 0
\; 0 \; 0 \; 0 \; 0 \; 0 \; 0 \; 0 \; 0 \; 0 \; 0 \; 0 \; 0 \; 0 \;
0 \; 0 \; 0 \; 0 \; 0 \; 0 \; 0 \; 0 \; 0 \; 0 \; 0 \; 0 \; 0 \; 0
\; 0 \; 0 \; 0 \; 0 \; 0 \; 0 \; 0 \; 0 \; 0 \; 0 \; 0 \; 0 \; 0 \;
0 \; 0 \; 0 \; 0 \; 0 \; 0 \; 0 \; 0 \; 0 \; 0 \; 0 \; 0 \; 0 \; 0
\; 0 \; 0 \; 0 \; 0 \; 0 \; 0 \; 0 \; 0 \; 0 \; 0 \; 0 \; 0 \; 0 \;
0 \; 0 \; 0 \; 0 \; 0 \; 0 \; 0 \; 0 \; 0 \; 0 \; 0 \; 0 \; 0 \; 0
\; 0 \; 0 \; 0 \; 0 \; 0 \; 0 \; 0 \; 0 \; 0 \; 120 \; 0 \; 0 \; 0
\; 0 \; 0 \; 0 \; 0 \; 0 \; 0 \; 0 \; 0 \; 0 \; 0 \; 0 \; 0 \; 0 \;
0 \; 0 \; 0 \; 0 \; 0 \; 0 \; 0 \; 0 \; 0 \; 0 \; 0 \; 0 \; 0 \; 0
\; 0 \; 0 \; 0 \; 0 \; 0 \; 0 \; 0 \; 0 \; 0 \; 0 \; 0 \; 0 \; 0 \;
0 \; 0 \; 0 \; 0 \; 0 \; 0 \; 0 \; 0 \; 0 \; 0 \; 0 \; 0 \; 0 \; 0
\; 0 \; 0 \; 0 \; 0 \; 0 \; 0 \; 0 \; 0 \; 0 \; 0 \; 0 \; 0 \; 0 \;
0 \; 0 \; 0 \; 0 \; 0 \; 0 \; 0 \; 0 \; 0 \; 0 \; 0 \; 0 \; 0 \; 0
\; 0 \; 0 \; 0 \; 0 \; 0 \; 0 \; 0 \; 0 \; 0 \; 0 \; 0 \; 120 \; 0
\; 0 \; 0 \; 0 \; 0 \; 0 \; 0 \; 0 \; 0 \; 0 \; 0 \; 0 \; 0 \; 0 \;
0 \; 0 \; 0 \; 0 \; 0 \; 0 \; 0 \; 0 \; 0 \; 0 \; 0 \; 0 \; 0 \; 0
\; 0 \; 0 \; 0 \; 0 \; 0 \; 0 \; 0 \; 0 \; 0 \; 0 \; 0 \; 0 \; 0 \;
0 \; 0 \; 0 \; 0 \; 0 \; 0 \; 120 \; 0 \; 0 \; 0 \; 0 \; 0 \; 0 \;
0 \; 0 \; 0 \; 0 \; 0 \; 0 \; 0 \; 0 \; 0 \; 0 \; 0 \; 0 \; 0 \; 0
\; 0 \; 0 \; 0 \; 0 \; 0 \; 0 \; 0 \; 0 \; 0 \; 0 \; 0 \; 0 \; 0 \;
0 \; 0 \; 0 \; 0 \; 0 \; 0 \; 0 \; 0 \; 0 \; 0 \; 0 \; 0 \; 0 \; 0
\; 120 \; 0 \; 0 \; 0 \; 0 \; 0 \; 0 \; 0 \; 0 \; 0 \; 0 \; 0 \; 0
\; 0 \; 0 \; 0 \; 0 \; 0 \; 0 \; 0 \; 0 \; 0 \; 0 \; 0 \; 0 \; 0 \;
0 \; 0 \; 0 \; 0 \; 0 \; 0 \; 0 \; 0 \; 0 \; 0 \; 0 \; 0 \; 0 \; 0
\; 0 \; 0 \; 0 \; 0 \; 0 \; 0 \; 0 \; 0 \; 120 \; 0 \; 0 \; 0 \; 0
\; 0 \; 0 \; 0 \; 0 \; 0 \; 0 \; 0 \; 0 \; 0 \; 0 \; 0 \; 0 \; 0 \;
0 \; 0 \; 0 \; 0 \; 0 \; 0 \; 0 \; 0 \; 0 \; 0 \; 0 \; 0 \; 0 \; 0
\; 0 \; 0 \; 0 \; 0 \; 0 \; 0 \; 0 \; 0 \; 0 \; 0 \; 0 \; 0 \; 0 \;
0 \; 0 \; 0 \; \;;
#X restore 194 26 pd array-data;
#X obj 93 398 pointer;
#X msg 114 343 \; pd-array-data clear;
#X msg 94 376 traverse pd-array-data \, bang;
#X obj 101 534 append template-array num;
#X obj 75 466 until;
#X obj 75 489 f;
#X obj 104 489 + 1;
#X obj 75 274 textfile;
#X msg 95 254 rewind;
#X msg 96 156 bang;
#X obj 76 211 t b b b;
#X msg 102 443 0;
#X obj 75 320 t f b b;
#X obj 74 511 t f f;
#X obj 59 891 textfile;
#X obj 75 420 t f b b;
#X obj 176 610 pointer;
#X msg 174 585 traverse pd-array-data;
#X obj 59 778 t b b f;
#X msg 78 823 rewind;
#X obj 59 867 until;
#X msg 117 915 0;
#X obj 86 939 f;
#X obj 117 939 + 1;
#X obj 59 917 t f b;
#X msg 133 581 next;
#X obj 28 1005 set template-element element;
#X obj 172 688 setsize template-array note;
#X obj 94 583 f;
#X obj 75 297 route totalfiles length;
#X obj 56 241 until;
#X obj 189 663 setsize template-array channel;
#X obj 130 711 setsize template-array velocity;
#X obj 176 631 t p p p p p p;
#X obj 94 605 t f f f;
#X obj 74 556 t f b b;
#X obj 399 909 textfile;
#X obj 533 1000 element template-array note;
#X obj 399 796 t b b f;
#X msg 418 841 rewind;
#X obj 399 885 until;
#X msg 457 933 0;
#X obj 426 957 f;
#X obj 457 957 + 1;
#X obj 399 935 t f b;
#X obj 368 1023 set template-element element;
#X obj 747 916 textfile;
#X obj 747 803 t b b f;
#X msg 766 848 rewind;
#X obj 747 892 until;
#X msg 805 940 0;
#X obj 774 964 f;
#X obj 805 964 + 1;
#X obj 747 942 t f b;
#X obj 716 1030 set template-element element;
#X obj 193 982 element template-array channel;
#X obj 881 1007 element template-array velocity;
#X obj 58 717 t f f f;
#X obj 59 845 t b b;
#X obj 399 863 t b b;
#X obj 747 869 t b b;
#X obj 1049 145 metro 1 120 permin;
#X msg 1041 88 1;
#X msg 1056 110 0;
#X obj 1121 81 * 96;
#X obj 1227 272 pointer;
#X msg 1239 197 bang;
#X msg 1263 219 next;
#X msg 1225 174 traverse pd-array-data;
#X msg 1275 242 vnext 1;
#X obj 1032 425 get template-element element;
#X obj 1048 198 f;
#X obj 1076 198 + 1;
#X msg 1108 170 0;
#X floatatom 1091 236 5 0 0 0 - - -, f 5;
#X msg 1121 103 tempo \$1 permin;
#X obj 1032 403 element template-array channel;
#X obj 1032 447 moses 1;
#X obj 1103 703 pack f f f;
#X obj 1121 543 get template-element element;
#X obj 1121 521 element template-array note;
#X obj 1155 609 get template-element element;
#X obj 1155 588 element template-array velocity;
#X obj 1067 548 f;
#X obj 1121 497 f;
#X obj 1153 565 f;
#X obj 1131 832 print;
#X obj 1040 512 t b b;
#X obj 1163 215 t b b;
#X obj 1095 292 f;
#X obj 1071 468 t b b b f b;
#X msg 1001 497 1;
#X obj 890 263 moses;
#X obj 917 287 t b;
#X msg 1242 17 bang;
#X obj 1242 39 t b b b b;
#X obj 1366 231 t b b b;
#X msg 1008 543 0;
#X obj 960 521 spigot 0;
#X msg 1122 59 120;
#N canvas 236 215 335 807 channel-routing 0;
#X obj 29 32 inlet;
#X obj 29 55 route 1 2 3 4 5 6 7 8;
#X obj 21 771 netsend -u -b;
#X msg 35 731 connect locathost 3001;
#X msg 46 751 disconnect;
#X msg 21 711 send \$1 \$2 \$3;
#X obj 40 674 netsend -u -b;
#X msg 65 654 disconnect;
#X msg 40 614 send \$1 \$2 \$3;
#X msg 54 634 connect locathost 3002;
#X obj 59 581 netsend -u -b;
#X msg 84 561 disconnect;
#X msg 59 521 send \$1 \$2 \$3;
#X msg 74 541 connect locathost 3003;
#X obj 73 492 netsend -u -b;
#X msg 98 472 disconnect;
#X msg 73 432 send \$1 \$2 \$3;
#X msg 88 452 connect locathost 3004;
#X obj 96 401 netsend -u -b;
#X msg 121 381 disconnect;
#X msg 96 341 send \$1 \$2 \$3;
#X obj 108 312 netsend -u -b;
#X msg 133 292 disconnect;
#X msg 108 252 send \$1 \$2 \$3;
#X obj 126 225 netsend -u -b;
#X msg 151 205 disconnect;
#X msg 126 165 send \$1 \$2 \$3;
#X obj 145 141 netsend -u -b;
#X msg 170 121 disconnect;
#X msg 145 81 send \$1 \$2 \$3;
#X msg 110 361 connect locathost 3005;
#X msg 122 271 connect locathost 3006;
#X msg 140 185 connect locathost 3007;
#X msg 160 101 connect locathost 3008;
#X connect 0 0 1 0;
#X connect 1 0 5 0;
#X connect 1 1 8 0;
#X connect 1 2 12 0;
#X connect 1 3 16 0;
#X connect 1 4 20 0;
#X connect 1 5 23 0;
#X connect 1 6 26 0;
#X connect 1 7 29 0;
#X connect 3 0 2 0;
#X connect 4 0 2 0;
#X connect 5 0 2 0;
#X connect 7 0 6 0;
#X connect 8 0 6 0;
#X connect 9 0 6 0;
#X connect 11 0 10 0;
#X connect 12 0 10 0;
#X connect 13 0 10 0;
#X connect 15 0 14 0;
#X connect 16 0 14 0;
#X connect 17 0 14 0;
#X connect 19 0 18 0;
#X connect 20 0 18 0;
#X connect 22 0 21 0;
#X connect 23 0 21 0;
#X connect 25 0 24 0;
#X connect 26 0 24 0;
#X connect 28 0 27 0;
#X connect 29 0 27 0;
#X connect 30 0 18 0;
#X connect 31 0 21 0;
#X connect 32 0 24 0;
#X connect 33 0 27 0;
#X restore 1201 841 pd channel-routing;
#X obj 1134 767 s;
#X obj 1241 737 f \$0;
#X msg 1243 710 bang;
#X obj 1201 812 r \$0-internal;
#X obj 1333 808 r \$0-midiout;
#X msg 1243 763 \$1-internal;
#X msg 1331 764 \$1-midiout;
#N canvas 38 730 353 347 midi-routing 1;
#X obj 247 17 inlet;
#X obj 129 300 noteout;
#X obj 246 124 unpack f f f;
#X msg 176 58 1 60 127;
#X obj 246 156 f;
#X obj 194 154 t b f;
#X msg 170 82 1 60 0;
#X obj 18 88 f;
#X obj 18 62 until;
#X obj 52 91 + 1;
#X obj 100 85 sel 0;
#X msg 15 33 bang;
#X obj 51 115 mod 128;
#X obj 18 136 t f b b;
#X msg 58 161 1;
#X msg 36 185 0;
#X connect 0 0 2 0;
#X connect 2 0 5 0;
#X connect 2 1 4 1;
#X connect 2 2 1 1;
#X connect 3 0 2 0;
#X connect 4 0 1 0;
#X connect 5 0 4 0;
#X connect 5 1 1 2;
#X connect 6 0 2 0;
#X connect 7 0 9 0;
#X connect 7 0 13 0;
#X connect 8 0 7 0;
#X connect 9 0 12 0;
#X connect 10 0 8 1;
#X connect 11 0 8 0;
#X connect 12 0 7 1;
#X connect 12 0 10 0;
#X connect 13 0 1 0;
#X connect 13 1 15 0;
#X connect 13 2 14 0;
#X connect 14 0 1 2;
#X connect 15 0 1 1;
#X restore 1334 840 pd midi-routing;
#X obj 1331 737 f \$0;
#X msg 1333 710 bang;
#X symbolatom 1186 789 10 0 0 0 - - -, f 10;
#X obj 903 434 spigot;
#X obj 936 410 <=;
#X obj 936 385 f;
#X obj 962 385 + 1;
#X msg 951 364 2;
#X obj 1024 256 t f b f f f;
#X obj 909 348 t f b;
#X obj 828 144 tgl 15 0 empty empty Loop 17 7 0 10 -262144 -1 -1 0
1;
#X obj 811 220 spigot 0;
#X obj 882 223 spigot 1;
#X obj 833 194 != 1;
#X msg 1086 46 60;
#X msg 115 232 read ../../perl/transform/loader.txt cr;
#X msg 98 801 read ../../perl/transform/c\$1.txt cr;
#X msg 438 819 read ../../perl/transform/n\$1.txt cr;
#X msg 786 826 read ../../perl/transform/v\$1.txt cr;
#X connect 3 0 6 1;
#X connect 5 0 3 0;
#X connect 7 0 8 0;
#X connect 8 0 9 0;
#X connect 8 0 16 0;
#X connect 9 0 8 1;
#X connect 10 0 32 0;
#X connect 10 1 33 1;
#X connect 11 0 10 0;
#X connect 12 0 13 0;
#X connect 13 0 33 0;
#X connect 13 1 11 0;
#X connect 13 2 127 0;
#X connect 14 0 8 1;
#X connect 15 0 18 0;
#X connect 15 1 5 0;
#X connect 15 2 4 0;
#X connect 16 0 38 0;
#X connect 16 1 6 0;
#X connect 17 0 27 0;
#X connect 17 1 23 1;
#X connect 18 0 7 0;
#X connect 18 1 14 0;
#X connect 18 2 20 0;
#X connect 19 0 36 0;
#X connect 20 0 19 0;
#X connect 21 0 61 0;
#X connect 21 1 22 0;
#X connect 21 2 128 0;
#X connect 22 0 17 0;
#X connect 23 0 17 0;
#X connect 24 0 25 1;
#X connect 25 0 26 0;
#X connect 25 0 58 0;
#X connect 26 0 25 1;
#X connect 27 0 29 0;
#X connect 27 1 25 0;
#X connect 28 0 19 0;
#X connect 31 0 37 0;
#X connect 32 0 15 0;
#X connect 32 0 116 1;
#X connect 32 1 31 1;
#X connect 32 1 95 1;
#X connect 33 0 10 0;
#X connect 36 0 58 1;
#X connect 36 1 40 1;
#X connect 36 2 59 1;
#X connect 36 3 35 1;
#X connect 36 4 30 1;
#X connect 36 5 34 1;
#X connect 37 0 35 0;
#X connect 37 1 30 0;
#X connect 37 2 34 0;
#X connect 38 0 60 0;
#X connect 38 1 31 0;
#X connect 38 2 28 0;
#X connect 39 0 47 0;
#X connect 39 1 43 1;
#X connect 40 0 48 1;
#X connect 41 0 62 0;
#X connect 41 1 42 0;
#X connect 41 2 129 0;
#X connect 42 0 39 0;
#X connect 43 0 39 0;
#X connect 44 0 45 1;
#X connect 45 0 46 0;
#X connect 45 0 40 0;
#X connect 46 0 45 1;
#X connect 47 0 48 0;
#X connect 47 1 45 0;
#X connect 49 0 56 0;
#X connect 49 1 52 1;
#X connect 50 0 63 0;
#X connect 50 1 51 0;
#X connect 50 2 130 0;
#X connect 51 0 49 0;
#X connect 52 0 49 0;
#X connect 53 0 54 1;
#X connect 54 0 55 0;
#X connect 54 0 59 0;
#X connect 55 0 54 1;
#X connect 56 0 57 0;
#X connect 56 1 54 0;
#X connect 58 0 29 1;
#X connect 59 0 57 1;
#X connect 60 0 21 0;
#X connect 60 1 41 0;
#X connect 60 2 50 0;
#X connect 61 0 23 0;
#X connect 61 1 24 0;
#X connect 62 0 43 0;
#X connect 62 1 44 0;
#X connect 63 0 52 0;
#X connect 63 1 53 0;
#X connect 64 0 74 0;
#X connect 65 0 64 0;
#X connect 66 0 64 0;
#X connect 67 0 78 0;
#X connect 68 0 79 1;
#X connect 68 0 83 1;
#X connect 68 0 85 1;
#X connect 69 0 68 0;
#X connect 70 0 68 0;
#X connect 71 0 68 0;
#X connect 72 0 68 0;
#X connect 73 0 80 0;
#X connect 74 0 75 0;
#X connect 74 0 77 0;
#X connect 74 0 95 0;
#X connect 75 0 74 1;
#X connect 76 0 74 1;
#X connect 76 0 77 0;
#X connect 78 0 64 0;
#X connect 79 0 73 0;
#X connect 80 0 101 0;
#X connect 80 1 93 0;
#X connect 81 0 89 0;
#X connect 81 0 111 0;
#X connect 82 0 81 1;
#X connect 83 0 82 0;
#X connect 84 0 81 2;
#X connect 85 0 84 0;
#X connect 86 0 81 0;
#X connect 87 0 83 0;
#X connect 88 0 85 0;
#X connect 90 0 91 0;
#X connect 90 1 86 0;
#X connect 91 0 92 0;
#X connect 91 1 70 0;
#X connect 92 0 121 0;
#X connect 93 0 90 0;
#X connect 93 1 88 0;
#X connect 93 2 87 0;
#X connect 93 3 86 1;
#X connect 93 4 94 0;
#X connect 94 0 101 1;
#X connect 95 0 120 0;
#X connect 95 1 96 0;
#X connect 96 0 124 0;
#X connect 96 0 123 0;
#X connect 97 0 98 0;
#X connect 98 0 65 0;
#X connect 98 1 102 0;
#X connect 98 2 70 0;
#X connect 98 3 71 0;
#X connect 99 0 70 0;
#X connect 99 1 71 0;
#X connect 99 2 100 0;
#X connect 100 0 101 1;
#X connect 101 0 99 0;
#X connect 102 0 67 0;
#X connect 105 0 109 0;
#X connect 106 0 105 0;
#X connect 107 0 103 0;
#X connect 108 0 111 0;
#X connect 109 0 114 0;
#X connect 110 0 114 0;
#X connect 112 0 110 0;
#X connect 113 0 112 0;
#X connect 114 0 104 1;
#X connect 115 0 79 0;
#X connect 116 0 115 1;
#X connect 117 0 118 0;
#X connect 117 0 116 0;
#X connect 118 0 117 1;
#X connect 119 0 117 1;
#X connect 120 0 79 0;
#X connect 120 1 119 0;
#X connect 120 2 87 1;
#X connect 120 3 88 1;
#X connect 120 4 92 1;
#X connect 121 0 115 0;
#X connect 121 1 117 0;
#X connect 122 0 125 0;
#X connect 122 0 124 1;
#X connect 123 0 66 0;
#X connect 124 0 76 0;
#X connect 125 0 123 1;
#X connect 126 0 67 0;
#X connect 127 0 10 0;
#X connect 128 0 17 0;
#X connect 129 0 39 0;
#X connect 130 0 49 0;
